<svg xmlns="http://www.w3.org/2000/svg" xmlns:xlink="http://www.w3.org/1999/xlink" version="1.1" id="Layer_1" x="0px" y="0px" width="195px" height="195px" viewBox="0 0 195 195" enable-background="new 0 0 195 195" xml:space="preserve">
<g transform="translate(-223)">
	<path id="Blue_2_" fill="#5FA8DC" d="M389.637,173.496c4.678,0,8.471-3.793,8.471-8.471V28.48c0-4.679-3.793-8.471-8.471-8.471
		H253.093c-4.68,0-8.471,3.792-8.471,8.471v136.545c0,4.678,3.791,8.471,8.471,8.471H389.637z"/>
	<path fill="#FFFFFF" d="M295.853,158.253c-16.378,0-31.622-4.801-44.456-13.029c2.269,0.268,4.577,0.405,6.918,0.405
		c13.587,0,26.092-4.636,36.018-12.414c-12.691-0.234-23.401-8.619-27.091-20.141c1.77,0.339,3.587,0.52,5.456,0.52
		c2.645,0,5.207-0.354,7.641-1.017c-13.268-2.664-23.264-14.385-23.264-28.437c0-0.122,0-0.244,0.002-0.365
		c3.91,2.172,8.382,3.477,13.136,3.627c-7.782-5.201-12.902-14.077-12.902-24.139c0-5.315,1.43-10.297,3.927-14.58
		c14.304,17.546,35.673,29.092,59.776,30.301c-0.494-2.123-0.751-4.336-0.751-6.609c0-16.016,12.985-29.001,29.002-29.001
		c8.341,0,15.878,3.522,21.169,9.159c6.606-1.301,12.813-3.715,18.416-7.038c-2.165,6.772-6.764,12.455-12.752,16.045
		c5.866-0.701,11.456-2.26,16.657-4.567c-3.888,5.816-8.805,10.924-14.471,15.013c0.056,1.244,0.084,2.494,0.084,3.752
		C378.366,114.062,349.196,158.253,295.853,158.253"/>
</g>
</svg>
