<svg version="1.1" id="Layer_1" xmlns="http://www.w3.org/2000/svg" xmlns:xlink="http://www.w3.org/1999/xlink" x="0px" y="0px"
	 width="195px" height="195px" viewBox="0 0 195 195" enable-background="new 0 0 195 195" xml:space="preserve">
<g transform="translate(-445)">
	<path fill="#FFFFFF" d="M544.909,19.984c-19.593,0-39.186-0.004-58.779,0.01c-1.075,0.001-2.169,0.05-3.222,0.246
		c-6.008,1.118-10.389,4.438-13.1,9.912c-1.208,2.439-1.7,5.05-1.699,7.776c0.01,31.429,0.007,62.858,0.007,94.287
		c0,7.817-0.009,15.635,0.011,23.452c0.003,1.035,0.054,2.086,0.242,3.101c1.128,6.112,4.538,10.511,10.13,13.193
		c2.321,1.113,4.796,1.58,7.38,1.579c24.811-0.013,49.623-0.008,74.434-0.008c14.515,0,29.03-0.001,43.545,0.002
		c1.062,0,2.114-0.058,3.163-0.24c8.384-1.449,14.64-8.841,14.641-17.344c0.004-39.446,0.007-78.892-0.004-118.338
		c-0.001-4.833-1.773-8.99-5.166-12.398c-3.461-3.476-7.708-5.221-12.621-5.224C584.215,19.976,564.562,19.984,544.909,19.984z"/>
	<path fill="#A67C52" d="M544.909,19.984c19.653,0,39.306-0.007,58.959,0.005c4.913,0.003,9.161,1.748,12.621,5.224
		c3.393,3.408,5.164,7.565,5.166,12.398c0.011,39.446,0.008,78.892,0.004,118.338c-0.001,8.503-6.257,15.895-14.641,17.344
		c-1.049,0.181-2.101,0.24-3.163,0.24c-14.515-0.004-29.03-0.002-43.545-0.002c-24.811,0-49.622-0.005-74.434,0.008
		c-2.584,0.001-5.059-0.466-7.38-1.579c-5.592-2.682-9.002-7.081-10.13-13.193c-0.187-1.015-0.239-2.066-0.242-3.101
		c-0.019-7.817-0.011-15.634-0.011-23.452c0-31.429,0.004-62.858-0.007-94.287c-0.001-2.726,0.492-5.337,1.699-7.776
		c2.711-5.474,7.092-8.794,13.1-9.912c1.054-0.196,2.147-0.245,3.222-0.246C505.723,19.98,525.316,19.984,544.909,19.984z
		 M499.154,85.039c-0.715-0.133-12.885-0.097-13.327,0.045c0,0.226,0,0.465,0,0.704c0,21.212,0,42.424,0.001,63.636
		c0,0.339,0.005,0.68,0.033,1.018c0.194,2.359,1.787,4.354,4.042,5.09c0.772,0.252,1.565,0.298,2.368,0.298
		c35.087-0.001,70.174-0.001,105.26-0.001c0.2,0,0.4,0.003,0.6-0.004c2.588-0.1,4.694-1.635,5.505-4.005
		c0.256-0.749,0.309-1.519,0.308-2.304c-0.004-21.252-0.004-42.504-0.004-63.756c0-0.1,0.006-0.2-0.001-0.3
		c-0.011-0.152-0.03-0.304-0.045-0.447c-1.091-0.118-12.824-0.07-13.276,0.057c2.463,9.681,1.973,19.218-1.594,28.551
		c-3.568,9.334-9.544,16.799-17.825,22.388c-15.274,10.308-35.282,10.718-50.986,1.056c-7.883-4.85-13.89-11.441-17.887-19.784
		C497.373,106.938,496.364,96.162,499.154,85.039z M544.882,126.292c16.294,0.004,29.515-13.181,29.534-29.453
		c0.019-16.349-13.192-29.606-29.522-29.595c-16.563,0.011-29.56,13.489-29.53,29.523
		C515.395,113.107,528.543,126.288,544.882,126.292z M589.132,67.238c2.998,0,5.997,0.016,8.995-0.004
		c3.203-0.021,5.798-2.607,5.808-5.814c0.019-5.957,0.019-11.914,0-17.87c-0.01-3.23-2.615-5.82-5.856-5.829
		c-5.937-0.017-11.874-0.018-17.81,0c-3.233,0.01-5.836,2.613-5.846,5.847c-0.018,5.937-0.01,11.874,0.003,17.81
		c0.001,0.493,0.073,1,0.2,1.478c0.691,2.603,2.993,4.371,5.691,4.38C583.255,67.247,586.193,67.239,589.132,67.238z"/>
	<path fill="#FFFFFF" d="M544.882,126.292c-16.339-0.004-29.487-13.184-29.518-29.525c-0.03-16.034,12.967-29.512,29.53-29.523
		c16.329-0.011,29.54,13.245,29.522,29.595C574.397,113.111,561.176,126.296,544.882,126.292z"/>
</g>
</svg>
