<svg xmlns="http://www.w3.org/2000/svg" xmlns:xlink="http://www.w3.org/1999/xlink" version="1.1" id="Layer_1" x="0px" y="0px" width="195px" height="195px" viewBox="0 0 195 195" enable-background="new 0 0 195 195" xml:space="preserve">
<path id="Blue_1_" fill="#3B5998" d="M166.015,174.258c4.678,0,8.471-3.793,8.471-8.471V29.242c0-4.679-3.793-8.471-8.471-8.471  H29.471c-4.68,0-8.471,3.792-8.471,8.471v136.545c0,4.678,3.791,8.471,8.471,8.471H166.015z"/>
<path id="f" fill="#FFFFFF" d="M129.903,174.258V114.82h19.951l2.987-23.164h-22.938V76.866c0-6.707,1.862-11.277,11.48-11.277  l12.266-0.006V44.865c-2.122-0.282-9.403-0.913-17.874-0.913c-17.685,0-29.793,10.795-29.793,30.62v17.083H85.98v23.164h20.002  v59.438H129.903z"/>
</svg>